<?xml version="1.0" standalone="no"?>
<!DOCTYPE svg PUBLIC "-//W3C//DTD SVG 20010904//EN"
 "http://www.w3.org/TR/2001/REC-SVG-20010904/DTD/svg10.dtd">
<svg version="1.0" xmlns="http://www.w3.org/2000/svg"
 width="512.000000pt" height="512.000000pt" viewBox="0 0 512.000000 512.000000"
 preserveAspectRatio="xMidYMid meet">
<metadata>
Created by potrace 1.11, written by Peter Selinger 2001-2013
</metadata>
<g transform="translate(0.000000,512.000000) scale(0.100000,-0.100000)"
fill="#000000" stroke="none">
<path d="M3270 4858 c-89 -37 -192 -79 -890 -363 -592 -240 -653 -264 -664
-258 -6 3 -8 2 -3 -2 4 -5 -37 -26 -90 -47 -54 -21 -108 -43 -120 -48 -13 -6
-34 -14 -48 -20 -14 -5 -37 -15 -52 -21 -16 -7 -37 -15 -48 -19 -11 -5 -37
-16 -58 -25 -21 -9 -45 -14 -53 -11 -8 3 -13 2 -9 -3 3 -5 -41 -28 -97 -50
-57 -22 -118 -47 -136 -56 -18 -9 -40 -14 -48 -11 -8 3 -13 2 -10 -3 3 -4 -38
-25 -92 -46 -192 -75 -276 -120 -326 -176 -47 -52 -85 -123 -105 -193 -7 -26
-9 -474 -8 -1400 3 -1504 -3 -1383 65 -1496 14 -25 25 -48 24 -52 -1 -5 2 -7
7 -5 5 1 17 -7 27 -19 11 -11 31 -29 47 -39 23 -15 25 -20 15 -34 -11 -14 -11
-14 3 -3 18 13 49 7 49 -11 0 -6 3 -8 6 -5 3 4 20 0 38 -7 44 -19 84 -27 123
-26 17 1 34 -3 38 -9 3 -5 12 -10 18 -10 8 0 7 3 -2 9 -9 6 6 9 42 9 40 -1 58
-5 62 -16 3 -10 0 -12 -10 -9 -8 4 -17 2 -19 -2 -3 -5 5 -8 17 -7 15 1 21 7
19 19 -2 10 3 17 13 17 9 0 13 -5 10 -10 -3 -6 -1 -10 4 -10 6 0 11 5 11 10 0
18 28 11 33 -9 3 -12 12 -18 28 -17 13 1 30 -2 36 -7 7 -5 13 -5 13 -1 0 5 -9
15 -21 22 -12 8 -18 9 -15 3 4 -5 -2 -9 -14 -8 -11 1 -20 7 -20 14 0 9 12 13
35 11 19 -1 35 -6 35 -10 0 -4 5 -8 11 -8 5 0 7 4 4 10 -3 5 1 10 9 10 9 0 16
-4 16 -10 0 -5 5 -10 11 -10 5 0 7 5 4 10 -3 6 2 10 13 10 10 0 19 -7 19 -15
0 -8 -6 -15 -14 -15 -7 0 -13 -5 -13 -10 0 -7 6 -7 20 0 11 6 19 16 17 22 -1
6 4 13 12 16 8 3 11 0 7 -7 -4 -6 -2 -11 3 -11 6 0 11 4 11 8 0 13 83 11 99
-2 11 -8 13 -8 8 1 -5 7 4 11 28 11 20 0 35 -5 35 -11 0 -7 5 -5 10 3 6 10 10
11 10 3 0 -7 5 -13 11 -13 5 0 8 4 5 9 -3 5 9 9 28 9 24 0 36 -5 39 -17 2 -9
15 -17 28 -18 18 -2 20 0 9 7 -8 5 -18 6 -22 4 -4 -3 -8 2 -8 10 0 22 77 19
83 -3 4 -13 5 -13 6 2 0 9 6 17 12 17 5 0 7 -6 3 -12 -5 -8 -1 -8 10 1 15 13
19 13 27 0 5 -8 9 -9 9 -3 0 7 19 11 53 10 46 -1 52 -3 49 -21 -2 -16 -1 -17
7 -5 5 8 7 18 5 22 -3 4 4 8 15 8 12 0 21 -4 21 -10 0 -5 5 -10 11 -10 5 0 7
5 3 11 -4 7 -1 10 7 7 8 -3 13 -14 11 -24 -2 -15 -1 -16 7 -4 5 8 8 17 5 21
-2 4 12 7 33 7 24 0 32 -3 22 -9 -9 -6 -10 -9 -2 -9 6 0 14 4 17 9 3 5 26 9
51 9 27 1 43 -3 40 -8 -3 -6 -1 -10 4 -10 6 0 11 4 11 9 0 5 11 9 25 9 13 0
22 -4 19 -9 -3 -5 0 -9 5 -9 6 0 11 5 11 10 0 6 17 10 38 10 27 0 33 -3 22
-10 -22 -14 -3 -12 21 2 17 10 23 10 26 1 3 -7 9 -13 14 -13 6 0 7 4 4 10 -3
5 1 10 9 10 18 0 30 -16 16 -23 -6 -3 -5 -4 2 -3 7 2 12 8 11 13 -1 6 18 11
43 11 26 1 42 -3 39 -8 -3 -6 -1 -10 4 -10 6 0 11 5 11 10 0 17 28 11 33 -8 4
-16 5 -16 6 1 1 10 9 17 22 17 11 0 17 -5 14 -10 -3 -6 -1 -10 4 -10 6 0 11 5
11 10 0 14 33 12 49 -2 11 -10 13 -10 7 0 -5 7 -1 12 9 12 10 0 13 -5 9 -12
-6 -10 -4 -10 7 -2 20 17 222 18 212 1 -10 -16 -12 -57 -3 -62 4 -3 6 9 5 25
-3 35 15 53 47 48 16 -2 23 -10 23 -25 0 -12 3 -24 6 -28 4 -3 6 7 4 23 -2 29
-1 30 39 29 22 0 44 -5 48 -11 5 -8 8 -8 8 0 0 8 23 12 66 12 42 0 61 -3 53
-9 -22 -14 -1 -10 22 4 17 9 23 9 26 0 3 -7 9 -13 14 -13 6 0 7 4 4 10 -3 5 1
10 10 10 10 0 14 -5 9 -12 -6 -10 -4 -10 7 -1 18 17 63 17 53 1 -6 -10 -4 -10
7 0 7 6 21 12 31 12 10 0 18 -6 18 -12 0 -10 2 -10 8 -2 7 13 132 15 132 3 0
-4 7 -10 16 -13 14 -5 15 -4 4 9 -10 13 -9 15 8 15 11 0 23 -8 25 -17 4 -17 5
-17 6 0 1 20 40 23 60 5 11 -10 13 -10 7 0 -9 15 40 17 49 2 3 -5 12 -10 18
-10 8 0 7 3 -2 9 -9 6 14 9 63 10 59 1 75 -2 70 -12 -6 -9 -4 -9 7 -1 19 15
89 16 108 1 10 -8 13 -8 8 0 -5 8 29 11 128 11 74 0 135 -4 135 -9 0 -5 5 -9
11 -9 5 0 7 5 4 10 -4 7 31 9 99 8 58 -2 106 0 106 4 0 5 3 7 8 6 4 -2 26 3
50 11 39 13 43 13 57 -5 12 -16 14 -16 9 -2 -8 22 19 51 34 36 6 -6 12 -6 17
3 5 8 4 10 -3 5 -7 -4 -12 -3 -12 1 0 14 40 34 53 27 7 -4 9 -4 5 1 -4 4 13
31 37 59 25 28 53 70 62 93 13 31 22 41 33 37 11 -4 12 -2 4 6 -16 16 -5 60
15 60 12 0 13 2 3 8 -14 10 -12 73 3 84 6 5 5 8 -2 8 -7 0 -13 5 -13 11 0 5 5
7 11 3 7 -4 7 1 -1 16 -8 15 -8 20 -1 16 6 -4 11 -2 11 3 0 6 -6 11 -12 11 -9
0 -8 4 2 10 8 5 11 10 5 10 -13 0 -15 60 -3 60 5 0 6 6 1 13 -12 18 -11 117 2
117 6 0 7 3 0 8 -13 9 -16 82 -3 82 5 0 6 6 1 13 -12 19 -13 40 -1 54 6 7 7
13 2 13 -5 0 -9 18 -10 40 0 22 3 40 8 40 5 0 6 6 1 13 -13 21 -14 49 -1 41 7
-5 8 -3 3 7 -12 19 -13 199 -1 192 5 -4 6 -1 1 7 -11 18 -14 160 -2 167 5 3 4
9 -4 13 -10 7 -10 11 0 24 8 9 10 16 5 16 -5 0 -9 11 -9 25 0 14 5 25 10 25 6
0 3 5 -5 10 -13 9 -13 10 0 10 9 0 11 3 5 8 -12 8 -15 73 -3 66 4 -3 8 0 8 5
0 6 -3 11 -7 11 -5 0 -8 51 -8 114 0 63 3 112 8 109 4 -2 7 1 7 6 0 6 -4 11
-10 11 -5 0 -10 5 -10 11 0 5 4 7 10 4 7 -4 7 2 0 19 -10 28 -5 35 23 30 11
-1 16 1 12 4 -4 4 -11 8 -16 8 -5 1 -13 2 -19 3 -5 0 -10 6 -10 12 0 5 4 8 9
4 6 -3 6 7 0 27 -6 22 -6 34 1 36 7 3 6 10 -2 20 -10 12 -10 14 0 8 6 -4 12
-2 12 3 0 6 -4 11 -9 11 -10 0 -9 50 2 68 5 7 4 12 -2 12 -6 0 -11 5 -11 11 0
5 6 7 13 3 7 -5 6 0 -3 11 -16 19 -15 21 2 43 7 8 7 12 -1 12 -6 0 -11 5 -11
11 0 5 6 7 13 3 7 -5 6 0 -3 11 -16 19 -15 21 2 43 6 7 7 12 1 12 -5 0 -10 13
-10 30 0 16 5 27 10 23 6 -3 7 -1 4 4 -13 20 -16 102 -5 109 7 5 9 2 5 -9 -4
-10 -2 -14 7 -11 12 5 19 34 7 32 -3 0 -13 0 -21 1 -13 1 -13 2 0 11 8 5 10
10 4 10 -6 0 -10 21 -10 49 0 27 4 47 8 45 4 -2 3 9 -2 26 -7 23 -6 30 3 27 7
-2 12 -9 12 -14 0 -6 3 -14 7 -18 3 -4 5 1 4 10 -1 10 -9 23 -18 29 -17 13
-12 39 5 30 7 -3 3 2 -7 10 -15 12 -16 16 -5 16 12 0 12 2 0 9 -7 5 -10 14 -6
21 5 8 10 9 14 2 4 -6 12 -7 20 -3 9 6 5 10 -15 15 -22 6 -25 9 -13 17 9 6 10
9 2 9 -7 0 -13 5 -13 11 0 5 6 7 13 3 9 -6 9 -4 1 7 -12 16 -12 29 -1 47 5 7
4 12 -2 12 -6 0 -11 5 -11 11 0 5 6 7 13 3 9 -6 9 -4 1 7 -12 16 -12 29 -1 47
5 6 4 12 -1 12 -5 0 -9 13 -9 30 0 18 4 27 11 23 7 -5 7 -2 0 8 -6 8 -10 22
-9 32 4 22 -24 138 -37 154 -5 7 -7 17 -3 23 3 5 2 10 -3 10 -5 0 -24 21 -41
48 -37 54 -97 102 -169 137 -56 27 -109 37 -202 39 -36 1 -70 5 -76 8 -6 4
-14 4 -18 0 -12 -11 -150 -9 -158 3 -5 7 -8 7 -8 -1 0 -11 -130 -12 -148 0 -6
3 -14 2 -17 -4 -5 -8 -11 -8 -20 0 -7 6 -16 7 -18 3 -7 -11 -153 -11 -163 0
-4 4 -13 2 -21 -4 -10 -9 -13 -8 -13 2 0 9 -3 10 -8 4 -9 -14 -145 -14 -154 0
-5 6 -8 5 -8 -4 0 -10 -3 -11 -14 -2 -8 7 -17 8 -20 3 -6 -10 -66 -10 -82 1
-6 3 -14 3 -18 -1 -11 -11 -50 -9 -58 3 -5 7 -8 7 -8 0 0 -13 -99 -13 -119 -1
-7 5 -16 5 -20 -1 -8 -12 -104 -11 -113 2 -5 6 -8 6 -8 -2 0 -12 -17 -12 -36
0 -6 3 -14 3 -18 -1 -12 -11 -96 -9 -96 2 0 8 -3 8 -8 1 -9 -14 -45 -14 -54 0
-5 7 -8 7 -8 0 0 -13 -119 -13 -139 -1 -8 5 -12 5 -8 0 6 -11 -163 -11 -181 0
-7 4 -12 2 -13 -6 0 -7 -4 -4 -9 7 l-9 20 -1 -20 c-1 -20 -1 -20 -15 -1 -11
15 -15 16 -15 5 0 -8 -9 -15 -19 -15 -11 0 -17 4 -15 8 3 4 1 8 -5 8 -5 0 -13
-5 -16 -10 -5 -8 -11 -7 -21 1 -8 6 -14 8 -14 3 0 -5 -15 -9 -34 -9 -19 0 -33
2 -31 5 2 4 -5 11 -16 18 -11 7 -19 8 -19 2 0 -5 5 -10 11 -10 5 0 7 -5 4 -10
-5 -8 -11 -7 -21 1 -11 9 -14 9 -14 0 0 -7 -4 -10 -10 -6 -5 3 0 17 12 30 l21
25 34 -25 c18 -15 30 -20 27 -11 -3 8 -1 17 5 21 6 3 11 11 11 18 0 6 -6 3
-13 -7 -11 -15 -17 -16 -35 -7 -12 6 -19 17 -16 25 6 17 -12 31 -21 16 -3 -5
-11 -10 -17 -10 -7 0 -7 4 1 13 6 8 9 23 6 35 -2 12 0 24 6 27 5 4 9 1 9 -5 0
-6 5 -8 10 -5 6 4 7 12 4 18 -4 7 -4 9 1 5 4 -4 14 -3 21 3 7 6 18 8 24 4 15
-9 1 -28 -16 -21 -13 5 -19 -6 -15 -28 1 -5 -5 -6 -14 -3 -8 4 -15 2 -15 -2 0
-11 31 -25 49 -22 7 1 10 -2 6 -8 -3 -6 -1 -11 5 -11 7 0 9 7 6 16 -3 9 -6 18
-6 21 0 3 -6 0 -14 -7 -12 -9 -15 -8 -13 9 1 12 7 21 14 21 13 0 44 -40 38
-50 -2 -3 5 -11 16 -18 23 -14 25 -7 4 14 -8 9 -15 21 -15 27 0 7 12 -1 25
-16 14 -15 25 -24 25 -20 0 4 -14 24 -30 43 -39 46 -38 62 2 24 17 -16 28 -23
24 -16 -4 6 -2 12 3 12 6 0 11 5 11 11 0 8 -4 8 -14 -1 -12 -9 -15 -8 -13 9 1
12 6 20 12 17 5 -2 18 3 28 12 10 9 17 10 17 4 0 -6 -4 -14 -10 -17 -5 -3 -10
-11 -10 -16 0 -6 11 3 25 18 13 15 24 24 24 18 1 -5 -15 -28 -34 -50 -19 -21
-32 -41 -30 -44 4 -4 17 10 62 68 7 9 13 11 13 5 0 -6 -9 -23 -21 -38 -18 -23
-18 -27 -5 -32 20 -8 49 3 42 15 -4 5 -1 12 4 14 6 3 5 4 -2 3 -7 -2 -12 -9
-11 -15 2 -6 -6 -11 -18 -11 l-20 0 20 27 c13 15 19 34 16 44 -4 12 1 23 14
31 12 7 21 17 21 22 0 5 -9 1 -19 -8 -15 -13 -20 -14 -24 -4 -4 11 -6 11 -6 0
-1 -15 -21 -6 -21 9 0 6 4 8 9 4 5 -3 12 -1 16 5 4 6 11 8 16 5 5 -4 9 -1 9 5
0 6 5 8 10 5 6 -3 10 -1 10 6 0 18 13 1 17 -21 2 -11 -6 -25 -17 -32 -11 -7
-20 -17 -20 -22 0 -4 7 -3 15 4 12 10 19 10 27 2 7 -7 17 -12 23 -12 5 0 2 5
-7 11 -10 5 -18 15 -18 21 0 6 7 5 17 -3 9 -8 14 -9 10 -2 -4 6 -4 13 0 16 5
2 2 2 -6 0 -8 -2 -11 2 -8 11 3 7 1 18 -5 24 -6 6 -6 12 0 16 6 3 13 -3 17
-14 3 -11 11 -20 16 -20 6 0 5 8 -1 21 -14 25 -5 38 13 19 10 -10 9 -11 -2 -5
-9 5 -12 4 -7 -3 5 -9 13 -9 29 0 12 6 23 11 25 10 13 -9 22 2 16 20 -6 21 -5
22 11 8 17 -14 18 -13 12 2 -3 10 -3 17 1 16 8 -1 51 16 82 32 14 7 23 6 34
-6 9 -8 16 -12 16 -7 0 5 -5 14 -10 19 -7 7 3 15 32 24 24 8 48 12 53 11 6 -2
16 -4 24 -5 8 -2 19 -10 26 -19 7 -9 17 -17 23 -17 18 0 24 20 12 35 -10 12
-10 19 1 33 13 15 12 16 -4 3 -10 -8 -16 -20 -13 -27 7 -19 -5 -24 -21 -8 -8
8 -18 12 -23 9 -5 -3 -12 0 -16 6 -4 8 -3 9 4 5 7 -4 12 -2 12 4 0 6 4 8 10 5
5 -3 19 1 31 9 12 8 28 12 35 9 8 -3 14 0 14 7 0 6 5 8 12 4 8 -5 4 -13 -12
-26 -22 -18 -22 -19 -4 -32 10 -8 21 -12 24 -10 2 3 -2 9 -10 14 -12 7 -9 14
15 34 34 30 50 33 59 10 4 -11 1 -14 -13 -9 -21 6 -46 -18 -38 -37 4 -8 6 -7
6 5 1 16 11 21 37 18 6 -1 18 6 25 16 8 9 9 14 2 10 -7 -4 -14 1 -18 13 -6 20
-8 20 -31 6 -27 -18 -34 -20 -34 -7 0 5 14 14 32 20 28 10 34 8 52 -11 12 -12
21 -27 21 -32 0 -5 7 -11 15 -13 12 -4 12 -3 2 5 -8 5 -13 13 -13 18 1 5 -6
17 -14 27 -8 9 -15 19 -15 21 0 1 18 11 40 21 39 17 41 17 60 0 19 -17 22 -17
37 -2 15 15 17 15 29 -1 11 -14 15 -15 26 -3 11 12 10 13 -4 8 -20 -7 -33 19
-12 27 8 3 14 13 14 22 0 10 3 14 8 10 10 -11 9 -30 -3 -39 -6 -5 -4 -7 5 -4
8 2 14 10 12 16 -2 10 11 15 31 12 5 -1 6 3 2 8 -3 6 -12 8 -20 4 -8 -3 -15 1
-15 8 0 7 3 10 6 6 4 -3 28 5 55 19 27 13 49 21 49 18 0 -4 7 -1 15 6 9 8 15
8 15 2 0 -6 9 -13 20 -17 11 -3 19 -11 17 -18 -1 -6 9 -12 23 -13 22 -2 22 -2
2 3 -12 2 -20 9 -17 14 4 5 -1 12 -9 15 -9 3 -13 11 -9 17 3 6 1 7 -5 3 -7 -4
-12 -3 -12 2 0 20 29 21 35 1 4 -10 11 -17 16 -14 5 4 9 -1 9 -9 0 -9 5 -16
10 -16 7 0 7 6 0 20 -6 11 -15 20 -21 20 -6 0 -9 6 -6 13 2 6 8 12 13 12 5 0
15 4 22 8 15 10 16 -5 0 -21 -9 -9 -9 -12 0 -12 6 0 14 11 18 24 4 16 18 27
44 36 45 15 45 19 9 100 -14 30 -45 103 -69 162 -25 59 -49 107 -55 107 -5 0
-53 -19 -105 -41z m-126 -491 c-16 -14 -34 -22 -41 -20 -18 7 -16 20 3 27 10
4 13 2 9 -7 -4 -6 -1 -5 7 4 13 16 40 29 47 23 2 -2 -9 -14 -25 -27z m-284
-157 c0 -5 -5 -10 -11 -10 -5 0 -7 5 -4 10 3 6 8 10 11 10 2 0 4 -4 4 -10z
m-327 -86 c1 -4 -8 -9 -20 -10 -27 -4 -31 13 -5 18 19 5 23 3 25 -8z m-192
-81 c12 -15 12 -16 -3 -10 -10 3 -23 1 -30 -6 -7 -7 -20 -12 -28 -12 -8 0 -14
-6 -12 -12 1 -7 -2 -13 -8 -13 -5 0 -10 5 -10 11 0 6 -7 9 -15 5 -8 -3 -15 -1
-15 4 0 6 3 10 8 11 25 2 44 9 64 23 28 20 32 20 49 -1z m-106 -74 c11 -17 -1
-21 -15 -4 -8 9 -8 15 -2 15 6 0 14 -5 17 -11z m-108 -16 c0 -10 -6 -25 -13
-34 -8 -8 -12 -26 -9 -38 2 -13 0 -31 -5 -40 -11 -19 -11 -19 -14 42 -1 35 2
46 11 43 7 -3 15 0 19 6 5 7 2 8 -6 3 -10 -6 -12 -4 -6 10 5 14 4 16 -7 7 -8
-7 -18 -8 -22 -4 -5 4 -4 1 0 -7 6 -11 4 -13 -10 -8 -17 7 -17 6 0 -19 9 -14
14 -28 12 -31 -3 -3 -12 9 -21 25 -17 33 -10 45 29 55 36 9 42 7 42 -10z m-85
-43 c2 -8 10 -21 20 -27 10 -8 14 -21 11 -33 -5 -20 -6 -20 -23 -3 -12 13 -14
20 -6 26 6 5 0 5 -14 1 -21 -6 -23 -5 -13 8 7 8 9 25 6 39 -4 17 -3 21 5 14 6
-5 12 -17 14 -25z m-27 -20 c-4 -6 -12 -7 -18 -3 -16 10 -38 10 -59 0 -11 -4
-18 -4 -18 2 0 9 57 27 73 23 4 -1 7 4 7 11 0 6 5 4 11 -6 5 -9 7 -22 4 -27z
m130 0 c-23 -25 -30 -25 -32 1 -2 16 1 18 11 10 10 -9 15 -7 20 5 4 9 9 14 13
10 3 -3 -2 -15 -12 -26z m-230 -20 c-3 -5 -1 -11 4 -14 5 -4 13 -1 17 5 4 8 3
9 -4 5 -7 -4 -12 -5 -12 -2 0 3 9 10 19 16 14 7 22 7 27 -2 4 -7 3 -8 -4 -4
-7 4 -10 -1 -7 -14 2 -11 -1 -23 -7 -26 -6 -4 -8 -3 -5 3 4 6 -4 11 -18 11
-16 0 -22 -5 -18 -12 4 -6 -1 -5 -11 3 -15 13 -19 13 -27 0 -5 -8 -9 -9 -9 -3
0 6 -7 11 -15 11 -8 0 -15 -3 -15 -7 0 -3 -9 -6 -20 -6 -28 0 -26 3 24 26 45
20 72 27 48 11 -11 -7 -11 -9 2 -14 9 -4 15 -3 15 1 -3 20 2 32 11 27 6 -4 8
-10 5 -15z m103 -9 c12 -6 22 -17 21 -24 0 -9 -2 -8 -6 1 -4 10 -8 10 -21 0
-13 -11 -15 -11 -10 3 4 9 1 16 -8 16 -7 0 -11 -4 -8 -8 2 -4 -1 -11 -7 -15
-8 -4 -9 -3 -5 4 4 7 2 12 -3 12 -8 0 -7 7 1 20 7 10 15 16 18 11 3 -4 15 -13
28 -20z"/>
<path d="M3520 4525 c0 -2 6 -8 13 -14 10 -8 14 -7 14 2 0 8 -6 14 -14 14 -7
0 -13 -1 -13 -2z"/>
<path d="M3575 4500 c-3 -5 -1 -10 4 -10 6 0 11 5 11 10 0 6 -2 10 -4 10 -3 0
-8 -4 -11 -10z"/>
<path d="M3510 4496 c0 -2 7 -9 15 -16 9 -7 15 -8 15 -2 0 5 -7 12 -15 16 -8
3 -15 4 -15 2z"/>
<path d="M3466 4475 c4 -8 8 -15 10 -15 2 0 4 7 4 15 0 8 -4 15 -10 15 -5 0
-7 -7 -4 -15z"/>
<path d="M3436 4447 c3 -10 9 -15 12 -12 3 3 0 11 -7 18 -10 9 -11 8 -5 -6z"/>
<path d="M3533 4447 c0 -8 6 -14 14 -14 9 0 10 4 2 14 -6 7 -12 13 -14 13 -1
0 -2 -6 -2 -13z"/>
<path d="M3300 4438 c0 -4 5 -8 11 -8 5 0 7 -5 3 -11 -4 -8 0 -8 15 0 25 14
28 23 4 14 -10 -4 -14 -2 -10 4 3 5 0 10 -8 10 -8 0 -15 -4 -15 -9z"/>
<path d="M3270 4421 c0 -5 6 -12 13 -14 9 -4 8 -8 -3 -16 -11 -8 -17 -6 -22 9
-10 26 -18 26 -11 0 7 -27 17 -32 37 -17 11 8 15 19 10 30 -6 18 -24 24 -24 8z"/>
<path d="M3468 4423 c7 -3 16 -2 19 1 4 3 -2 6 -13 5 -11 0 -14 -3 -6 -6z"/>
<path d="M3350 4411 c0 -5 5 -13 10 -16 6 -3 10 -2 10 4 0 5 -4 13 -10 16 -5
3 -10 2 -10 -4z"/>
<path d="M3320 4395 c-7 -9 -11 -17 -9 -20 3 -2 10 5 17 15 14 24 10 26 -8 5z"/>
<path d="M3420 4400 c-9 -6 -10 -10 -3 -10 6 0 15 5 18 10 8 12 4 12 -15 0z"/>
<path d="M3474 4403 c3 -4 0 -13 -6 -22 -10 -12 -7 -12 8 2 11 9 23 16 25 15
2 -2 3 -1 1 1 -1 3 -10 6 -18 7 -9 1 -13 0 -10 -3z"/>
<path d="M3573 4385 c0 -8 4 -12 9 -9 5 3 6 10 3 15 -9 13 -12 11 -12 -6z"/>
<path d="M3329 4369 c-12 -24 3 -50 16 -28 6 8 4 10 -5 4 -10 -6 -12 -4 -7 9
4 10 7 20 7 22 0 3 5 2 12 -2 7 -4 8 -3 4 4 -10 16 -14 15 -27 -9z"/>
<path d="M3375 4380 c-3 -6 1 -7 9 -4 18 7 21 14 7 14 -6 0 -13 -4 -16 -10z"/>
<path d="M3220 4370 c0 -19 -3 -25 -19 -38 -14 -11 -13 -12 4 -3 17 8 33 51
19 51 -2 0 -4 -4 -4 -10z"/>
<path d="M3433 4365 c0 -8 4 -12 9 -9 5 3 6 10 3 15 -9 13 -12 11 -12 -6z"/>
<path d="M3241 4354 c0 -11 3 -14 6 -6 3 7 2 16 -1 19 -3 4 -6 -2 -5 -13z"/>
<path d="M3277 4363 c-10 -10 -8 -23 4 -23 5 0 8 4 5 9 -4 5 0 12 6 14 7 3 8
6 2 6 -6 1 -14 -2 -17 -6z"/>
<path d="M3636 4353 c-6 -14 -5 -15 5 -6 7 7 10 15 7 18 -3 3 -9 -2 -12 -12z"/>
<path d="M3062 4330 c7 -10 14 -17 17 -15 2 3 10 0 17 -6 10 -8 19 -6 36 5 12
9 18 16 12 16 -5 0 -15 -5 -21 -11 -11 -11 -53 7 -53 23 0 5 -5 8 -10 8 -6 0
-5 -8 2 -20z"/>
<path d="M3439 4333 c-13 -16 -12 -17 4 -4 16 13 21 21 13 21 -2 0 -10 -8 -17
-17z"/>
<path d="M3380 4330 c0 -5 -6 -7 -14 -4 -8 3 -17 0 -22 -7 -4 -8 -3 -10 5 -5
6 4 17 3 24 -3 10 -7 13 -5 14 10 1 10 0 19 -3 19 -2 0 -4 -4 -4 -10z"/>
<path d="M3022 4311 c6 -9 19 -18 29 -18 27 -2 24 3 -10 20 -28 14 -29 14 -19
-2z"/>
<path d="M3230 4321 c0 -6 4 -13 10 -16 6 -3 7 1 4 9 -7 18 -14 21 -14 7z"/>
<path d="M3290 4322 c0 -4 10 -9 22 -9 18 -2 20 0 8 7 -18 12 -30 13 -30 2z"/>
<path d="M3476 4313 c-6 -14 -5 -15 5 -6 7 7 10 15 7 18 -3 3 -9 -2 -12 -12z"/>
<path d="M3147 4309 c-9 -6 -15 -14 -12 -19 3 -4 -2 -10 -10 -14 -8 -3 -15
-11 -14 -18 0 -10 2 -10 6 0 2 6 9 12 14 12 6 0 7 -5 3 -12 -4 -6 -3 -8 4 -5
5 4 9 15 8 25 -2 9 4 22 13 29 20 15 13 16 -12 2z"/>
<path d="M3180 4306 c0 -2 11 -6 25 -8 13 -3 22 -1 19 3 -5 9 -44 13 -44 5z"/>
<path d="M3270 4303 c5 -2 8 -9 5 -13 -3 -5 -1 -11 4 -14 5 -4 8 2 7 11 -2 9
-8 18 -15 19 -6 1 -7 0 -1 -3z"/>
<path d="M3077 4281 c-4 -17 -3 -21 5 -13 5 5 8 16 6 23 -3 8 -7 3 -11 -10z"/>
<path d="M3165 4280 c-3 -6 1 -7 9 -4 18 7 21 14 7 14 -6 0 -13 -4 -16 -10z"/>
<path d="M3357 4273 c-10 -9 -9 -23 1 -23 5 0 9 7 9 15 0 17 -1 18 -10 8z"/>
<path d="M3197 4257 c4 -7 -1 -8 -13 -3 -15 6 -17 5 -6 -5 10 -11 15 -10 28 2
13 14 13 16 0 16 -8 0 -12 -5 -9 -10z"/>
<path d="M3455 4261 c-3 -5 -2 -12 3 -15 5 -3 9 1 9 9 0 17 -3 19 -12 6z"/>
<path d="M3395 4251 c-3 -5 -2 -12 3 -15 5 -3 9 1 9 9 0 17 -3 19 -12 6z"/>
<path d="M2990 4240 c0 -5 10 -14 23 -20 20 -10 20 -10 5 3 -10 8 -15 17 -11
20 3 4 1 7 -5 7 -7 0 -12 -4 -12 -10z"/>
<path d="M3142 4237 c-8 -10 -6 -13 7 -13 11 0 17 6 14 13 -3 7 -6 13 -8 13
-1 0 -7 -6 -13 -13z"/>
<path d="M3230 4242 c0 -5 7 -9 15 -9 8 0 12 4 9 9 -3 4 -9 8 -15 8 -5 0 -9
-4 -9 -8z"/>
<path d="M2950 4230 c0 -5 7 -10 16 -10 9 0 12 -5 8 -12 -4 -7 -3 -8 4 -4 16
10 15 14 -8 26 -14 7 -20 7 -20 0z"/>
<path d="M3030 4236 c0 -2 7 -9 15 -16 13 -11 14 -10 9 4 -5 14 -24 23 -24 12z"/>
<path d="M2754 4216 c-3 -8 -1 -22 4 -32 7 -13 9 -10 8 15 -1 34 -4 38 -12 17z"/>
<path d="M3376 4221 c-3 -5 2 -15 12 -22 15 -12 16 -12 5 2 -7 9 -10 19 -6 22
3 4 4 7 0 7 -3 0 -8 -4 -11 -9z"/>
<path d="M3095 4210 c-4 -6 -10 -8 -14 -6 -4 3 -8 -1 -8 -9 0 -10 4 -12 12 -5
7 5 14 8 17 5 2 -3 5 2 5 10 0 18 -3 19 -12 5z"/>
<path d="M2710 4198 c0 -4 7 -8 15 -8 8 0 15 4 15 8 0 5 -7 9 -15 9 -8 0 -15
-4 -15 -9z"/>
<path d="M2779 4196 c9 -11 9 -20 2 -35 -12 -22 -4 -31 25 -27 26 4 28 47 3
53 -11 3 -19 9 -19 14 0 5 -5 9 -11 9 -8 0 -8 -4 0 -14z m38 -34 c1 -11 -6
-18 -18 -19 -16 -2 -17 1 -9 18 13 24 25 25 27 1z"/>
<path d="M2930 4200 c0 -5 5 -10 10 -10 6 0 10 5 10 10 0 6 -4 10 -10 10 -5 0
-10 -4 -10 -10z"/>
<path d="M2996 4202 c-3 -5 1 -9 9 -9 8 0 12 4 9 9 -3 4 -7 8 -9 8 -2 0 -6 -4
-9 -8z"/>
<path d="M3133 4194 c0 -9 4 -11 12 -4 7 5 14 9 16 7 2 -1 3 0 1 2 -7 11 -29
7 -29 -5z"/>
<path d="M2643 4172 c-15 -11 -20 -21 -14 -31 6 -9 10 -10 16 -2 4 7 16 9 28
6 15 -4 18 -3 9 3 -8 5 -13 12 -12 16 5 19 -8 23 -27 8z m17 -12 c-8 -5 -19
-10 -25 -10 -5 0 -3 5 5 10 8 5 20 10 25 10 6 0 3 -5 -5 -10z"/>
<path d="M2870 4180 c0 -5 5 -10 10 -10 6 0 10 5 10 10 0 6 -4 10 -10 10 -5 0
-10 -4 -10 -10z"/>
<path d="M2956 4182 c-2 -4 -1 -14 3 -20 6 -10 11 -9 21 3 11 13 10 14 -5 9
-13 -5 -16 -4 -11 4 4 7 5 12 2 12 -3 0 -7 -4 -10 -8z"/>
<path d="M3032 4181 c2 -17 -3 -25 -10 -15 -5 8 -14 3 -26 -15 -19 -26 -19
-26 0 -10 10 9 27 15 37 14 11 -2 16 -1 13 2 -3 4 -1 11 4 18 7 8 5 12 -5 12
-7 0 -14 -3 -13 -6z"/>
<path d="M2707 4167 c-7 -18 9 -44 20 -33 4 5 2 11 -5 13 -10 4 -10 8 -1 19 7
8 7 14 1 14 -5 0 -12 -6 -15 -13z"/>
<path d="M2740 4165 c0 -8 4 -15 10 -15 5 0 7 7 4 15 -4 8 -8 15 -10 15 -2 0
-4 -7 -4 -15z"/>
<path d="M2920 4169 c0 -5 -4 -7 -10 -4 -14 9 -12 -1 3 -13 10 -8 13 -6 14 9
1 10 0 19 -3 19 -2 0 -4 -5 -4 -11z"/>
<path d="M3095 4171 c-3 -5 -2 -12 3 -15 5 -3 9 1 9 9 0 17 -3 19 -12 6z"/>
<path d="M2846 4155 c4 -8 8 -15 10 -15 2 0 4 7 4 15 0 8 -4 15 -10 15 -5 0
-7 -7 -4 -15z"/>
<path d="M2586 4134 c-9 -23 -7 -31 4 -14 5 8 12 12 15 8 4 -3 -3 -15 -15 -26
-24 -22 -19 -42 10 -42 13 0 17 -6 14 -22 -4 -21 -4 -21 5 -3 11 25 5 35 -20
35 -24 0 -24 5 0 29 14 14 22 16 30 8 17 -17 13 -27 -6 -21 -15 5 -16 4 -3 -5
27 -19 34 7 9 38 -28 35 -35 37 -43 15z"/>
<path d="M2870 4139 c0 -5 5 -7 10 -4 6 3 10 8 10 11 0 2 -4 4 -10 4 -5 0 -10
-5 -10 -11z"/>
<path d="M2744 4129 c-4 -7 -3 -9 4 -5 5 3 13 0 15 -6 4 -9 6 -10 6 -1 1 17
-16 25 -25 12z"/>
<path d="M2890 4125 c-7 -9 -11 -17 -9 -20 3 -2 10 5 17 15 14 24 10 26 -8 5z"/>
<path d="M2650 4121 c0 -9 19 -19 32 -17 4 0 14 -8 23 -19 14 -19 16 -19 28
-3 8 10 18 14 22 10 5 -4 5 -1 0 7 -7 11 -11 11 -22 -5 -13 -18 -15 -18 -24
-1 -6 9 -14 15 -20 12 -5 -4 -12 1 -15 9 -7 17 -24 22 -24 7z"/>
<path d="M2853 4115 c0 -8 4 -12 9 -9 5 3 6 10 3 15 -9 13 -12 11 -12 -6z"/>
<path d="M2913 4112 c-8 -14 -8 -19 1 -19 7 0 13 9 13 19 1 10 1 18 0 18 -1 0
-7 -8 -14 -18z"/>
<path d="M2547 4096 c-10 -11 -22 -28 -27 -36 -5 -8 -17 -15 -26 -15 -10 0
-18 -6 -20 -13 -1 -7 0 -8 3 -2 7 14 23 12 21 -2 -2 -8 7 -13 22 -13 15 0 24
5 23 13 -2 6 4 12 12 12 18 0 20 16 3 26 -6 4 -8 3 -5 -3 4 -6 0 -14 -9 -17
-8 -3 -12 -10 -9 -16 3 -6 -4 -10 -16 -10 -20 0 -19 3 16 46 20 25 36 47 34
48 -2 2 -12 -6 -22 -18z"/>
<path d="M2780 4106 c0 -2 7 -7 16 -10 8 -3 12 -2 9 4 -6 10 -25 14 -25 6z"/>
<path d="M2496 4075 c-3 -8 -1 -15 3 -15 5 0 11 7 15 15 3 8 1 15 -3 15 -5 0
-11 -7 -15 -15z"/>
<path d="M2666 4077 c3 -10 9 -15 12 -12 3 3 0 11 -7 18 -10 9 -11 8 -5 -6z"/>
<path d="M2770 4081 c0 -6 4 -12 8 -15 5 -3 9 1 9 9 0 8 -4 15 -9 15 -4 0 -8
-4 -8 -9z"/>
<path d="M2845 4079 c-3 -4 2 -6 10 -5 21 3 28 13 10 13 -9 0 -18 -4 -20 -8z"/>
<path d="M2733 4043 c1 -18 4 -20 17 -10 25 19 26 20 8 14 -9 -3 -19 -1 -21 6
-3 7 -4 2 -4 -10z"/>
<path d="M2635 4040 c-3 -5 -1 -10 4 -10 6 0 11 5 11 10 0 6 -2 10 -4 10 -3 0
-8 -4 -11 -10z"/>
<path d="M2686 4041 c-3 -5 1 -11 9 -14 9 -4 12 -1 8 9 -6 16 -10 17 -17 5z"/>
<path d="M2855 4040 c3 -5 8 -10 11 -10 2 0 4 5 4 10 0 6 -5 10 -11 10 -5 0
-7 -4 -4 -10z"/>
<path d="M2590 4021 c0 -6 4 -13 10 -16 6 -3 7 1 4 9 -7 18 -14 21 -14 7z"/>
<path d="M2886 4018 c3 -5 10 -6 15 -3 13 9 11 12 -6 12 -8 0 -12 -4 -9 -9z"/>
<path d="M2676 4007 c3 -10 9 -15 12 -12 3 3 0 11 -7 18 -10 9 -11 8 -5 -6z"/>
<path d="M2410 4006 c0 -2 7 -7 16 -10 8 -3 12 -2 9 4 -6 10 -25 14 -25 6z"/>
<path d="M2460 4000 c-12 -7 -10 -9 8 -7 12 0 22 5 22 9 0 11 -12 10 -30 -2z"/>
<path d="M2547 4003 c-3 -5 5 -8 18 -8 13 0 21 3 18 8 -2 4 -10 7 -18 7 -8 0
-16 -3 -18 -7z"/>
<path d="M2507 3988 c-12 -10 -14 -17 -6 -28 9 -13 10 -13 6 0 -2 8 3 20 12
27 9 7 13 13 10 13 -3 0 -13 -6 -22 -12z"/>
<path d="M2403 3984 c9 -3 15 -9 13 -13 -3 -4 0 -13 5 -21 7 -11 8 -8 6 10 -3
16 -11 26 -23 27 -16 2 -16 1 -1 -3z"/>
<path d="M2546 3963 l-17 -28 19 22 c11 12 23 19 27 15 5 -4 5 -1 1 6 -10 17
-11 16 -30 -15z"/>
<path d="M2600 3980 c-9 -6 -10 -10 -3 -10 6 0 15 5 18 10 8 12 4 12 -15 0z"/>
<path d="M2814 3982 c4 -3 14 -7 22 -8 9 -1 13 0 10 4 -4 3 -14 7 -22 8 -9 1
-13 0 -10 -4z"/>
<path d="M2633 3955 c0 -8 4 -12 9 -9 5 3 6 10 3 15 -9 13 -12 11 -12 -6z"/>
<path d="M2660 3966 c0 -2 8 -10 18 -17 15 -13 16 -12 3 4 -13 16 -21 21 -21
13z"/>
<path d="M2396 3935 c-9 -26 -7 -32 5 -12 6 10 9 21 6 23 -2 3 -7 -2 -11 -11z"/>
<path d="M2559 3933 c-13 -16 -12 -17 4 -4 16 13 21 21 13 21 -2 0 -10 -8 -17
-17z"/>
<path d="M2491 3931 c-8 -5 -9 -11 -3 -15 5 -3 12 1 16 9 6 17 6 18 -13 6z"/>
<path d="M2317 3923 c-12 -11 -8 -23 9 -23 8 0 13 -4 9 -9 -3 -5 -1 -12 4 -15
5 -4 8 2 7 11 -2 9 -8 19 -14 21 -7 2 -10 8 -6 13 6 10 0 12 -9 2z"/>
<path d="M2414 3918 c-5 -7 -3 -8 6 -3 9 6 12 4 8 -7 -4 -8 0 -15 7 -15 10 0
11 5 4 19 -11 21 -15 22 -25 6z"/>
<path d="M2455 3921 c-3 -5 -2 -12 3 -15 5 -3 9 1 9 9 0 17 -3 19 -12 6z"/>
<path d="M2357 3909 c7 -7 15 -10 18 -7 3 3 -2 9 -12 12 -14 6 -15 5 -6 -5z"/>
<path d="M2510 3916 c0 -2 8 -10 18 -17 15 -13 16 -12 3 4 -13 16 -21 21 -21
13z"/>
<path d="M2180 3900 c0 -6 7 -10 15 -10 8 0 15 2 15 4 0 2 -7 6 -15 10 -8 3
-15 1 -15 -4z"/>
<path d="M2493 3887 c0 -7 9 -14 20 -14 11 -1 18 -1 16 0 -2 2 -11 8 -20 15
-12 9 -16 9 -16 -1z"/>
<path d="M2365 3880 c-3 -6 1 -7 9 -4 18 7 21 14 7 14 -6 0 -13 -4 -16 -10z"/>
<path d="M2407 3879 c7 -7 15 -10 18 -7 3 3 -2 9 -12 12 -14 6 -15 5 -6 -5z"/>
<path d="M2268 3873 c6 -2 10 -9 7 -14 -4 -5 1 -6 10 -2 13 5 14 7 3 14 -7 5
-17 8 -23 8 -5 0 -4 -3 3 -6z"/>
<path d="M2230 3860 c0 -5 5 -10 10 -10 6 0 10 5 10 10 0 6 -4 10 -10 10 -5 0
-10 -4 -10 -10z"/>
<path d="M2315 3860 c3 -5 8 -10 11 -10 2 0 4 5 4 10 0 6 -5 10 -11 10 -5 0
-7 -4 -4 -10z"/>
<path d="M2473 3855 c0 -8 4 -12 9 -9 5 3 6 10 3 15 -9 13 -12 11 -12 -6z"/>
<path d="M2615 3860 c3 -5 8 -10 11 -10 2 0 4 5 4 10 0 6 -5 10 -11 10 -5 0
-7 -4 -4 -10z"/>
<path d="M2650 3859 c0 -5 5 -7 10 -4 6 3 10 8 10 11 0 2 -4 4 -10 4 -5 0 -10
-5 -10 -11z"/>
<path d="M4753 3329 c-2 -23 3 -25 10 -4 4 8 3 16 -1 19 -4 3 -9 -4 -9 -15z"/>
<path d="M4708 3303 c7 -3 16 -2 19 1 4 3 -2 6 -13 5 -11 0 -14 -3 -6 -6z"/>
<path d="M4730 3256 c0 -2 8 -10 18 -17 15 -13 16 -12 3 4 -13 16 -21 21 -21
13z"/>
<path d="M4700 3226 c0 -2 9 -6 20 -9 11 -3 18 -1 14 4 -5 9 -34 13 -34 5z"/>
<path d="M4729 3163 c-13 -16 -12 -17 4 -4 9 7 17 15 17 17 0 8 -8 3 -21 -13z"/>
<path d="M4790 3119 c0 -5 5 -7 10 -4 6 3 10 8 10 11 0 2 -4 4 -10 4 -5 0 -10
-5 -10 -11z"/>
<path d="M4747 3099 c7 -8 11 -26 8 -39 -2 -12 -1 -20 2 -16 14 14 12 45 -5
57 -15 12 -16 12 -5 -2z"/>
<path d="M4710 2958 c0 -6 3 -8 7 -5 3 4 13 1 22 -6 14 -11 14 -10 2 6 -15 20
-31 22 -31 5z"/>
<path d="M4708 2923 c7 -3 16 -2 19 1 4 3 -2 6 -13 5 -11 0 -14 -3 -6 -6z"/>
<path d="M4740 2926 c0 -2 8 -10 18 -17 15 -13 16 -12 3 4 -13 16 -21 21 -21
13z"/>
<path d="M4780 2886 c0 -2 8 -10 18 -17 15 -13 16 -12 3 4 -13 16 -21 21 -21
13z"/>
<path d="M4749 2858 c7 -9 9 -23 5 -30 -6 -10 -4 -11 7 0 11 10 10 15 -6 30
-17 15 -18 15 -6 0z"/>
<path d="M4735 2799 c-4 -6 -5 -12 -2 -15 2 -3 7 2 10 11 7 17 1 20 -8 4z"/>
<path d="M4733 2753 c0 -10 4 -10 16 -1 9 7 18 13 20 15 2 1 -5 1 -16 0 -11 0
-20 -7 -20 -14z"/>
<path d="M4716 2719 c4 -8 30 -6 38 2 3 3 -5 5 -19 5 -13 0 -22 -3 -19 -7z"/>
<path d="M4710 2670 c-11 -7 -11 -10 -2 -10 8 0 10 -5 6 -12 -4 -7 -3 -9 1 -5
7 6 17 37 12 37 -1 0 -9 -5 -17 -10z"/>
<path d="M4749 2603 c-13 -16 -12 -17 4 -4 9 7 17 15 17 17 0 8 -8 3 -21 -13z"/>
<path d="M4708 2576 c12 -23 39 -30 39 -10 0 10 -4 11 -10 5 -7 -7 -15 -5 -24
7 -13 16 -14 15 -5 -2z"/>
<path d="M4736 2507 c3 -10 9 -15 12 -12 3 3 0 11 -7 18 -10 9 -11 8 -5 -6z"/>
<path d="M4708 2503 c6 -2 9 -10 6 -15 -4 -7 -2 -8 5 -4 13 9 5 26 -12 25 -9
0 -8 -2 1 -6z"/>
<path d="M4710 2380 c0 -5 5 -10 10 -10 6 0 10 5 10 10 0 6 -4 10 -10 10 -5 0
-10 -4 -10 -10z"/>
<path d="M4745 2380 c-3 -6 1 -7 9 -4 18 7 21 14 7 14 -6 0 -13 -4 -16 -10z"/>
<path d="M4770 2340 c0 -5 5 -10 11 -10 5 0 7 5 4 10 -3 6 -8 10 -11 10 -2 0
-4 -4 -4 -10z"/>
<path d="M4729 2283 c-13 -16 -12 -17 4 -4 9 7 17 15 17 17 0 8 -8 3 -21 -13z"/>
<path d="M4759 2233 c-13 -16 -12 -17 4 -4 16 13 21 21 13 21 -2 0 -10 -8 -17
-17z"/>
<path d="M4720 2220 c-9 -6 -10 -10 -3 -10 6 0 15 5 18 10 8 12 4 12 -15 0z"/>
<path d="M4735 2170 c-4 -6 -10 -8 -14 -6 -4 3 -8 -4 -8 -15 -1 -10 3 -19 9
-19 6 0 8 3 5 7 -4 3 0 15 10 25 9 10 13 18 10 18 -3 0 -9 -5 -12 -10z"/>
<path d="M4745 2140 c-3 -6 1 -7 9 -4 18 7 21 14 7 14 -6 0 -13 -4 -16 -10z"/>
<path d="M4747 2099 c7 -7 15 -10 18 -7 3 3 -2 9 -12 12 -14 6 -15 5 -6 -5z"/>
<path d="M4716 2055 c-9 -26 -7 -32 5 -12 6 10 9 21 6 23 -2 3 -7 -2 -11 -11z"/>
<path d="M4753 2049 c-2 -23 3 -25 10 -4 4 8 3 16 -1 19 -4 3 -9 -4 -9 -15z"/>
<path d="M4754 2009 c-3 -6 -2 -15 3 -20 5 -5 9 -1 9 11 0 23 -2 24 -12 9z"/>
<path d="M4710 1965 c0 -5 5 -17 10 -25 5 -8 10 -10 10 -5 0 6 -5 17 -10 25
-5 8 -10 11 -10 5z"/>
<path d="M4750 1960 c0 -5 5 -10 11 -10 5 0 7 5 4 10 -3 6 -8 10 -11 10 -2 0
-4 -4 -4 -10z"/>
<path d="M4750 1922 c0 -5 7 -9 15 -9 8 0 12 4 9 9 -3 4 -9 8 -15 8 -5 0 -9
-4 -9 -8z"/>
<path d="M4716 1893 c-6 -14 -5 -15 5 -6 7 7 10 15 7 18 -3 3 -9 -2 -12 -12z"/>
<path d="M4755 1889 c-4 -6 -5 -12 -2 -15 2 -3 7 2 10 11 7 17 1 20 -8 4z"/>
<path d="M4770 1820 c0 -5 5 -10 11 -10 5 0 7 5 4 10 -3 6 -8 10 -11 10 -2 0
-4 -4 -4 -10z"/>
<path d="M4720 1806 c0 -2 8 -10 18 -17 15 -13 16 -12 3 4 -13 16 -21 21 -21
13z"/>
<path d="M4706 1777 c3 -10 9 -15 12 -12 3 3 0 11 -7 18 -10 9 -11 8 -5 -6z"/>
<path d="M4717 1713 c-10 -9 -9 -23 1 -23 5 0 9 7 9 15 0 17 -1 18 -10 8z"/>
<path d="M4779 1708 c-5 -18 -6 -38 -1 -34 7 8 12 36 6 36 -2 0 -4 -1 -5 -2z"/>
<path d="M4707 1574 c2 -7 12 -15 20 -18 12 -5 13 -4 5 7 -7 8 -10 16 -7 19 3
2 -1 5 -9 5 -8 0 -12 -6 -9 -13z"/>
<path d="M4775 1571 c-3 -5 -2 -12 3 -15 5 -3 9 1 9 9 0 17 -3 19 -12 6z"/>
<path d="M4717 1513 c-10 -9 -9 -23 1 -23 5 0 9 7 9 15 0 17 -1 18 -10 8z"/>
<path d="M4710 1461 c0 -6 4 -12 8 -15 5 -3 9 1 9 9 0 8 -4 15 -9 15 -4 0 -8
-4 -8 -9z"/>
<path d="M4705 1400 c-3 -6 1 -7 9 -4 18 7 21 14 7 14 -6 0 -13 -4 -16 -10z"/>
<path d="M4775 1401 c-3 -5 -2 -12 3 -15 5 -3 9 1 9 9 0 17 -3 19 -12 6z"/>
<path d="M4720 1340 c-9 -6 -10 -10 -3 -10 6 0 15 5 18 10 8 12 4 12 -15 0z"/>
<path d="M4705 1240 c-3 -6 1 -7 9 -4 18 7 21 14 7 14 -6 0 -13 -4 -16 -10z"/>
<path d="M4770 1240 c0 -5 5 -10 11 -10 5 0 7 5 4 10 -3 6 -8 10 -11 10 -2 0
-4 -4 -4 -10z"/>
<path d="M4720 1180 c-9 -6 -10 -10 -3 -10 6 0 15 5 18 10 8 12 4 12 -15 0z"/>
<path d="M4773 1169 c-2 -23 3 -25 10 -4 4 8 3 16 -1 19 -4 3 -9 -4 -9 -15z"/>
<path d="M4715 1071 c1 -9 -1 -21 -6 -27 -5 -7 -3 -11 5 -11 8 0 13 7 11 16
-1 9 1 21 6 27 5 7 3 11 -5 11 -8 0 -13 -7 -11 -16z"/>
<path d="M4770 1001 c0 -6 4 -13 10 -16 6 -3 7 1 4 9 -7 18 -14 21 -14 7z"/>
<path d="M4765 920 c-3 -6 1 -7 9 -4 18 7 21 14 7 14 -6 0 -13 -4 -16 -10z"/>
<path d="M4770 880 c0 -5 5 -10 11 -10 5 0 7 5 4 10 -3 6 -8 10 -11 10 -2 0
-4 -4 -4 -10z"/>
<path d="M4713 803 c4 -3 2 -11 -3 -18 -7 -8 -6 -12 3 -12 7 0 14 9 14 19 1
10 -3 18 -9 18 -6 0 -8 -3 -5 -7z"/>
<path d="M4776 782 c-3 -4 4 -9 15 -9 23 -2 25 3 4 10 -8 4 -16 3 -19 -1z"/>
<path d="M4726 738 c3 -5 10 -6 15 -3 13 9 11 12 -6 12 -8 0 -12 -4 -9 -9z"/>
<path d="M4699 738 c-5 -18 -6 -38 -1 -34 7 8 12 36 6 36 -2 0 -4 -1 -5 -2z"/>
<path d="M4675 659 c3 -4 -2 -9 -10 -13 -8 -3 -15 -11 -15 -18 0 -9 3 -8 10 2
9 14 14 7 11 -13 -1 -5 3 -6 9 -2 6 3 8 11 4 16 -3 5 -1 16 5 23 8 9 7 13 -4
13 -8 0 -12 -4 -10 -8z"/>
<path d="M4706 621 c-3 -4 4 -7 14 -6 27 2 33 10 10 12 -11 1 -22 -2 -24 -6z"/>
<path d="M4633 568 c-2 -18 0 -20 7 -8 12 18 13 30 2 30 -4 0 -9 -10 -9 -22z"/>
<path d="M4586 542 c-2 -4 4 -8 14 -8 10 0 16 4 14 8 -3 4 -9 8 -14 8 -5 0
-11 -4 -14 -8z"/>
<path d="M4666 518 c3 -5 10 -6 15 -3 13 9 11 12 -6 12 -8 0 -12 -4 -9 -9z"/>
<path d="M4706 522 c-3 -5 1 -9 9 -9 8 0 12 4 9 9 -3 4 -7 8 -9 8 -2 0 -6 -4
-9 -8z"/>
<path d="M4579 473 c-12 -16 -12 -17 2 -6 9 7 20 9 24 5 5 -4 5 -1 1 6 -9 16
-11 15 -27 -5z"/>
<path d="M4650 459 c0 -5 5 -7 10 -4 6 3 10 8 10 11 0 2 -4 4 -10 4 -5 0 -10
-5 -10 -11z"/>
<path d="M4535 450 c-4 -6 -10 -8 -14 -6 -4 3 -8 -1 -8 -9 0 -10 4 -12 12 -5
7 5 14 8 17 5 2 -3 5 2 5 10 0 18 -3 19 -12 5z"/>
<path d="M4475 421 c-3 -5 0 -13 6 -17 7 -4 9 -3 5 4 -3 5 0 13 6 15 9 4 10 6
1 6 -6 1 -14 -3 -18 -8z"/>
<path d="M716 407 c3 -10 9 -15 12 -12 3 3 0 11 -7 18 -10 9 -11 8 -5 -6z"/>
<path d="M4539 418 c-5 -18 -6 -38 -1 -34 7 8 12 36 6 36 -2 0 -4 -1 -5 -2z"/>
<path d="M917 383 c3 -7 6 -13 8 -13 2 0 5 6 8 13 3 8 -1 14 -8 14 -7 0 -11
-6 -8 -14z"/>
<path d="M1335 390 c6 -10 4 -12 -8 -7 -10 3 -17 2 -17 -3 0 -13 27 -13 35 -1
3 5 0 13 -6 17 -8 5 -9 3 -4 -6z"/>
<path d="M1500 389 c0 -5 -4 -8 -8 -5 -4 2 -14 0 -22 -5 -11 -7 -9 -8 9 -6 21
3 45 27 27 27 -3 0 -6 -5 -6 -11z"/>
<path d="M1696 383 c-6 -14 -5 -15 5 -6 7 7 10 15 7 18 -3 3 -9 -2 -12 -12z"/>
<path d="M1993 377 c-10 -22 -9 -24 15 -22 15 1 36 -2 47 -7 19 -9 19 -8 2 6
-11 8 -28 13 -38 11 -16 -3 -19 0 -14 15 9 28 0 25 -12 -3z"/>
<path d="M2150 391 c0 -7 -5 -9 -12 -5 -7 4 -8 3 -4 -5 4 -6 12 -8 18 -5 7 5
9 2 6 -8 -4 -8 0 -15 7 -15 11 0 11 5 3 21 -14 28 -18 32 -18 17z"/>
<path d="M2312 391 c-10 -6 -9 -10 7 -14 12 -3 24 0 28 5 3 6 1 8 -5 4 -5 -3
-12 -2 -14 4 -2 5 -9 6 -16 1z"/>
<path d="M2708 393 c6 -2 18 -2 25 0 6 3 1 5 -13 5 -14 0 -19 -2 -12 -5z"/>
<path d="M2980 396 c0 -2 7 -7 16 -10 8 -3 12 -2 9 4 -6 10 -25 14 -25 6z"/>
<path d="M3240 391 c0 -6 4 -13 10 -16 6 -3 7 1 4 9 -7 18 -14 21 -14 7z"/>
<path d="M3668 393 c7 -3 16 -2 19 1 4 3 -2 6 -13 5 -11 0 -14 -3 -6 -6z"/>
<path d="M4015 390 c-3 -6 1 -7 9 -4 18 7 21 14 7 14 -6 0 -13 -4 -16 -10z"/>
<path d="M4271 387 c-8 -10 -7 -14 4 -14 8 0 11 5 8 10 -4 6 1 8 11 4 10 -4
15 -3 11 3 -8 14 -20 12 -34 -3z"/>
<path d="M4388 388 c-7 -17 15 -19 29 -3 4 4 3 5 -4 2 -6 -4 -13 -2 -15 5 -3
8 -6 6 -10 -4z"/>
<path d="M836 373 c-6 -14 -5 -15 5 -6 7 7 10 15 7 18 -3 3 -9 -2 -12 -12z"/>
<path d="M894 382 c5 -8 0 -12 -13 -12 -11 0 -22 -4 -25 -9 -3 -4 6 -6 21 -3
20 4 24 2 18 -9 -5 -8 -4 -10 0 -6 13 12 15 36 3 44 -7 3 -8 1 -4 -5z"/>
<path d="M1030 381 c0 -6 4 -13 10 -16 6 -3 7 1 4 9 -7 18 -14 21 -14 7z"/>
<path d="M1270 383 c0 -6 8 -17 18 -24 16 -13 16 -13 2 6 -8 11 -16 22 -17 24
-2 2 -3 0 -3 -6z"/>
<path d="M1377 383 c-3 -5 0 -17 4 -28 9 -18 9 -18 5 3 -3 16 1 22 14 22 13 0
17 -6 14 -22 -4 -21 -4 -21 5 -3 11 25 5 35 -19 35 -10 0 -21 -3 -23 -7z"/>
<path d="M1588 368 c-10 -10 -14 -18 -9 -18 10 0 36 29 30 34 -2 1 -12 -6 -21
-16z"/>
<path d="M1654 379 c-3 -6 -1 -16 5 -22 9 -9 10 -7 5 7 -6 15 -4 17 6 11 9 -5
11 -4 6 3 -9 15 -13 15 -22 1z"/>
<path d="M1735 379 c-4 -6 -4 -13 -1 -16 3 -4 6 -1 6 6 0 7 5 9 12 5 7 -4 8
-3 4 4 -9 15 -13 15 -21 1z"/>
<path d="M1816 382 c-2 -4 7 -18 20 -31 19 -18 23 -19 17 -6 -5 14 -3 16 8 10
8 -5 11 -5 6 1 -5 5 -13 10 -18 10 -5 1 -14 2 -20 3 -5 0 -7 6 -4 11 3 6 4 10
1 10 -3 0 -7 -3 -10 -8z"/>
<path d="M1895 379 c-4 -6 -5 -12 -2 -15 2 -3 7 2 10 11 7 17 1 20 -8 4z"/>
<path d="M2070 380 c0 -5 5 -10 10 -10 6 0 10 5 10 10 0 6 -4 10 -10 10 -5 0
-10 -4 -10 -10z"/>
<path d="M2430 381 c0 -6 4 -13 10 -16 6 -3 7 1 4 9 -7 18 -14 21 -14 7z"/>
<path d="M2495 379 c-6 -8 -4 -10 5 -4 10 6 12 4 6 -11 -6 -15 -5 -17 5 -6 9
9 10 15 2 23 -8 8 -13 7 -18 -2z"/>
<path d="M2595 373 c1 -10 -1 -23 -6 -29 -5 -6 -4 -11 4 -11 7 0 13 13 14 29
0 15 -3 28 -7 28 -5 0 -7 -8 -5 -17z"/>
<path d="M2673 378 c2 -7 1 -20 -4 -28 -5 -11 -2 -16 11 -16 12 0 16 4 11 11
-5 5 -7 18 -6 28 2 9 -1 17 -7 17 -5 0 -8 -6 -5 -12z"/>
<path d="M2950 380 c0 -5 5 -10 10 -10 6 0 10 5 10 10 0 6 -4 10 -10 10 -5 0
-10 -4 -10 -10z"/>
<path d="M3083 375 c-3 -9 -3 -19 1 -22 3 -4 6 1 6 11 0 10 5 14 12 10 7 -4 8
-3 4 4 -10 16 -15 15 -23 -3z"/>
<path d="M3156 381 c-3 -5 1 -14 8 -20 10 -9 16 -9 21 -1 4 6 4 14 1 17 -3 4
-6 1 -6 -6 0 -7 -5 -9 -10 -6 -6 4 -8 11 -5 16 4 5 4 9 1 9 -3 0 -7 -4 -10 -9z"/>
<path d="M3869 372 c12 -23 12 -34 -2 -52 -9 -12 -9 -13 3 -2 19 16 21 60 3
66 -10 4 -11 1 -4 -12z"/>
<path d="M4180 384 c0 -1 6 -7 14 -13 10 -9 15 -8 19 2 3 8 -3 13 -14 13 -11
0 -19 -1 -19 -2z"/>
<path d="M4433 367 c-1 -11 -1 -18 0 -16 2 2 8 11 15 20 9 12 9 16 -1 16 -7 0
-14 -9 -14 -20z"/>
<path d="M4610 386 c0 -2 7 -7 16 -10 8 -3 12 -2 9 4 -6 10 -25 14 -25 6z"/>
<path d="M735 370 c-4 -6 -12 -7 -18 -4 -7 4 -8 3 -4 -1 13 -15 34 -14 34 1 0
17 -4 18 -12 4z"/>
<path d="M1150 365 c0 -8 4 -15 8 -15 5 0 9 7 9 15 0 8 -4 15 -9 15 -4 0 -8
-7 -8 -15z"/>
<path d="M1916 371 c-3 -5 1 -11 9 -14 9 -4 12 -1 8 9 -6 16 -10 17 -17 5z"/>
<path d="M1955 370 c3 -5 8 -10 11 -10 2 0 4 5 4 10 0 6 -5 10 -11 10 -5 0 -7
-4 -4 -10z"/>
<path d="M2200 375 c0 -5 5 -17 10 -25 5 -8 10 -10 10 -5 0 6 -5 17 -10 25 -5
8 -10 11 -10 5z"/>
<path d="M2546 363 c-6 -14 -5 -15 5 -6 7 7 10 15 7 18 -3 3 -9 -2 -12 -12z"/>
<path d="M3279 378 c-5 -18 -6 -38 -1 -34 7 8 12 36 6 36 -2 0 -4 -1 -5 -2z"/>
<path d="M990 358 c0 -4 7 -8 15 -8 8 0 15 4 15 8 0 5 -7 9 -15 9 -8 0 -15 -4
-15 -9z"/>
<path d="M1230 358 c0 -4 7 -8 15 -8 8 0 15 4 15 8 0 5 -7 9 -15 9 -8 0 -15
-4 -15 -9z"/>
<path d="M1340 360 c-12 -7 -10 -9 7 -7 12 0 19 5 17 9 -6 10 -6 10 -24 -2z"/>
<path d="M1507 364 c-4 -4 -7 -12 -7 -18 0 -6 5 -4 10 4 9 13 11 13 21 0 9
-12 10 -12 7 -1 -5 17 -21 25 -31 15z"/>
<path d="M1628 353 c-4 -13 0 -19 13 -19 14 0 16 3 6 16 -6 8 -12 16 -13 18
-1 1 -4 -5 -6 -15z"/>
<path d="M1764 359 c-3 -6 -1 -16 5 -22 9 -9 10 -7 5 7 -6 15 -4 17 6 11 9 -5
11 -4 6 3 -9 15 -13 15 -22 1z"/>
<path d="M2116 362 c-3 -5 1 -9 9 -9 8 0 12 4 9 9 -3 4 -7 8 -9 8 -2 0 -6 -4
-9 -8z"/>
<path d="M2264 358 c9 -5 23 -5 32 0 12 6 7 9 -16 9 -23 0 -28 -3 -16 -9z"/>
<path d="M2386 362 c-3 -5 1 -9 9 -9 8 0 15 4 15 9 0 4 -4 8 -9 8 -6 0 -12 -4
-15 -8z"/>
<path d="M2784 350 c0 -13 4 -16 10 -10 7 7 7 13 0 20 -6 6 -10 3 -10 -10z"/>
<path d="M2868 363 c7 -3 16 -2 19 1 4 3 -2 6 -13 5 -11 0 -14 -3 -6 -6z"/>
<path d="M3217 358 c-3 -8 5 -14 20 -14 13 -1 23 -1 21 0 -2 1 -10 7 -19 14
-13 10 -18 10 -22 0z"/>
<path d="M3370 360 c0 -5 5 -10 10 -10 6 0 10 5 10 10 0 6 -4 10 -10 10 -5 0
-10 -4 -10 -10z"/>
<path d="M3430 360 c0 -5 5 -10 10 -10 6 0 10 5 10 10 0 6 -4 10 -10 10 -5 0
-10 -4 -10 -10z"/>
<path d="M3490 362 c0 -5 7 -9 15 -9 8 0 12 4 9 9 -3 4 -9 8 -15 8 -5 0 -9 -4
-9 -8z"/>
<path d="M3539 353 c-13 -17 -13 -17 6 -3 11 8 22 16 24 17 2 2 0 3 -6 3 -6 0
-17 -8 -24 -17z"/>
<path d="M3640 360 c8 -5 20 -10 25 -10 6 0 3 5 -5 10 -8 5 -19 10 -25 10 -5
0 -3 -5 5 -10z"/>
<path d="M3709 357 c6 -8 9 -16 6 -19 -3 -2 2 -5 10 -5 13 0 13 3 -2 19 -19
21 -31 25 -14 5z"/>
<path d="M3789 357 c6 -8 9 -16 6 -19 -3 -2 2 -5 10 -5 13 0 13 3 -2 19 -19
21 -31 25 -14 5z"/>
<path d="M4071 367 c2 -2 11 -8 20 -15 12 -9 16 -9 16 1 0 7 -9 14 -20 14 -11
1 -18 1 -16 0z"/>
<path d="M4535 360 c-3 -5 -1 -10 4 -10 6 0 11 5 11 10 0 6 -2 10 -4 10 -3 0
-8 -4 -11 -10z"/>
<path d="M947 346 c-4 -10 1 -12 14 -9 23 6 24 9 5 16 -8 3 -17 0 -19 -7z"/>
<path d="M1068 353 c7 -3 16 -2 19 1 4 3 -2 6 -13 5 -11 0 -14 -3 -6 -6z"/>
<path d="M2230 356 c0 -2 8 -10 18 -17 15 -13 16 -12 3 4 -13 16 -21 21 -21
13z"/>
<path d="M3030 350 c-9 -6 -10 -10 -3 -10 6 0 15 5 18 10 8 12 4 12 -15 0z"/>
<path d="M3106 345 c-11 -8 -15 -15 -9 -15 6 0 16 7 23 15 16 19 11 19 -14 0z"/>
<path d="M2348 343 c7 -3 16 -2 19 1 4 3 -2 6 -13 5 -11 0 -14 -3 -6 -6z"/>
<path d="M2468 343 c7 -3 16 -2 19 1 4 3 -2 6 -13 5 -11 0 -14 -3 -6 -6z"/>
<path d="M2866 341 c-4 -5 3 -7 14 -4 23 6 26 13 6 13 -8 0 -17 -4 -20 -9z"/>
<path d="M3840 340 c-9 -6 -10 -10 -3 -10 6 0 15 5 18 10 8 12 4 12 -15 0z"/>
<path d="M3996 341 c-3 -5 2 -15 12 -22 15 -12 16 -12 5 2 -7 9 -10 19 -6 22
3 4 4 7 0 7 -3 0 -8 -4 -11 -9z"/>
<path d="M4030 336 c7 -7 13 -7 20 0 6 6 3 10 -10 10 -13 0 -16 -4 -10 -10z"/>
<path d="M4230 336 c7 -7 13 -7 20 0 6 6 3 10 -10 10 -13 0 -16 -4 -10 -10z"/>
<path d="M4387 339 c7 -7 15 -10 18 -7 3 3 -2 9 -12 12 -14 6 -15 5 -6 -5z"/>
<path d="M1291 324 c0 -11 3 -14 6 -6 3 7 2 16 -1 19 -3 4 -6 -2 -5 -13z"/>
<path d="M1793 325 c0 -8 4 -12 9 -9 5 3 6 10 3 15 -9 13 -12 11 -12 -6z"/>
<path d="M2375 330 c-4 -6 -10 -8 -15 -5 -4 3 -7 -2 -6 -10 1 -8 4 -16 7 -17
2 -2 3 -1 1 1 -1 2 5 13 15 23 9 10 13 18 10 18 -3 0 -9 -5 -12 -10z"/>
<path d="M2495 329 c-4 -6 -5 -12 -2 -15 2 -3 7 2 10 11 7 17 1 20 -8 4z"/>
<path d="M2628 333 c7 -3 16 -2 19 1 4 3 -2 6 -13 5 -11 0 -14 -3 -6 -6z"/>
<path d="M3164 322 c23 -26 23 -26 23 -7 0 8 -3 13 -5 10 -3 -3 -12 1 -21 7
-10 8 -9 4 3 -10z"/>
<path d="M3295 329 c-4 -6 -5 -12 -2 -15 2 -3 7 2 10 11 7 17 1 20 -8 4z"/>
<path d="M4133 325 c0 -8 4 -12 9 -9 5 3 6 10 3 15 -9 13 -12 11 -12 -6z"/>
<path d="M830 321 c0 -6 4 -12 8 -15 5 -3 9 1 9 9 0 8 -4 15 -9 15 -4 0 -8 -4
-8 -9z"/>
<path d="M1030 326 c0 -2 7 -7 16 -10 8 -3 12 -2 9 4 -6 10 -25 14 -25 6z"/>
<path d="M1111 314 c0 -11 3 -14 6 -6 3 7 2 16 -1 19 -3 4 -6 -2 -5 -13z"/>
<path d="M1216 313 c-6 -14 -5 -15 5 -6 7 7 10 15 7 18 -3 3 -9 -2 -12 -12z"/>
<path d="M1310 323 c0 -6 8 -17 18 -24 16 -13 16 -13 2 6 -8 11 -16 22 -17 24
-2 2 -3 0 -3 -6z"/>
<path d="M1354 318 c-4 -5 -3 -12 0 -15 3 -4 6 -1 6 7 0 9 3 10 13 1 10 -8 14
-7 14 2 0 15 -25 18 -33 5z"/>
<path d="M1413 314 c0 -9 4 -11 12 -4 7 5 14 9 16 7 2 -1 3 0 1 2 -7 11 -29 7
-29 -5z"/>
<path d="M1471 307 c-13 -21 -12 -21 5 -5 10 10 16 20 13 22 -3 3 -11 -5 -18
-17z"/>
<path d="M1725 319 c-3 -4 2 -6 10 -5 21 3 28 13 10 13 -9 0 -18 -4 -20 -8z"/>
<path d="M1886 322 c-3 -5 1 -9 9 -9 8 0 15 4 15 9 0 4 -4 8 -9 8 -6 0 -12 -4
-15 -8z"/>
<path d="M1950 318 c0 -6 3 -8 7 -5 3 4 13 1 22 -6 14 -11 14 -10 2 6 -15 20
-31 22 -31 5z"/>
<path d="M2046 318 c3 -4 9 -8 15 -8 5 0 9 4 9 8 0 5 -7 9 -15 9 -8 0 -12 -4
-9 -9z"/>
<path d="M2113 315 c0 -8 4 -12 9 -9 5 3 6 10 3 15 -9 13 -12 11 -12 -6z"/>
<path d="M2216 318 c3 -5 10 -6 15 -3 13 9 11 12 -6 12 -8 0 -12 -4 -9 -9z"/>
<path d="M2433 312 c-8 -14 -8 -19 1 -19 7 0 13 9 13 19 1 10 1 18 0 18 -1 0
-7 -8 -14 -18z"/>
<path d="M2515 321 c-3 -5 -2 -12 3 -15 5 -3 9 1 9 9 0 17 -3 19 -12 6z"/>
<path d="M2806 318 c3 -5 9 -7 12 -4 3 3 12 0 21 -6 13 -10 14 -10 4 2 -15 16
-46 23 -37 8z"/>
<path d="M3034 322 c4 -3 14 -7 22 -8 9 -1 13 0 10 4 -4 3 -14 7 -22 8 -9 1
-13 0 -10 -4z"/>
<path d="M3126 322 c-3 -5 1 -9 9 -9 8 0 12 4 9 9 -3 4 -7 8 -9 8 -2 0 -6 -4
-9 -8z"/>
<path d="M3550 317 c0 -4 12 -5 26 -3 38 7 40 14 5 12 -17 0 -31 -4 -31 -9z"/>
<path d="M4186 322 c-3 -5 1 -9 9 -9 8 0 15 4 15 9 0 4 -4 8 -9 8 -6 0 -12 -4
-15 -8z"/>
<path d="M4275 321 c-3 -5 -2 -12 3 -15 5 -3 9 1 9 9 0 17 -3 19 -12 6z"/>
<path d="M989 303 c-13 -16 -12 -17 3 -5 9 8 23 10 29 6 8 -4 9 -3 5 4 -10 17
-21 15 -37 -5z"/>
<path d="M1070 316 c0 -2 8 -10 18 -17 15 -13 16 -12 3 4 -13 16 -21 21 -21
13z"/>
<path d="M2393 305 c0 -8 4 -12 9 -9 5 3 6 10 3 15 -9 13 -12 11 -12 -6z"/>
<path d="M913 293 c0 -9 4 -10 14 -2 7 6 13 12 13 14 0 1 -6 2 -13 2 -8 0 -14
-6 -14 -14z"/>
<path d="M1600 300 c-9 -6 -10 -10 -3 -10 6 0 15 5 18 10 8 12 4 12 -15 0z"/>
<path d="M1670 295 c5 -7 6 -16 2 -21 -4 -5 -3 -5 2 -1 15 12 15 34 0 34 -9 0
-11 -4 -4 -12z"/>
<path d="M2867 299 c7 -7 15 -10 18 -7 3 3 -2 9 -12 12 -14 6 -15 5 -6 -5z"/>
<path d="M3666 298 c3 -5 10 -6 15 -3 13 9 11 12 -6 12 -8 0 -12 -4 -9 -9z"/>
<path d="M3890 299 c0 -5 5 -7 10 -4 6 3 10 8 10 11 0 2 -4 4 -10 4 -5 0 -10
-5 -10 -11z"/>
<path d="M1065 280 c10 -11 20 -20 23 -20 3 0 -3 9 -13 20 -10 11 -20 20 -23
20 -3 0 3 -9 13 -20z"/>
<path d="M816 278 c3 -5 10 -6 15 -3 13 9 11 12 -6 12 -8 0 -12 -4 -9 -9z"/>
<path d="M999 273 c-13 -16 -12 -17 4 -4 16 13 21 21 13 21 -2 0 -10 -8 -17
-17z"/>
<path d="M1140 286 c0 -2 8 -10 18 -17 15 -13 16 -12 3 4 -13 16 -21 21 -21
13z"/>
<path d="M1266 282 c-3 -5 1 -9 9 -9 8 0 12 4 9 9 -3 4 -7 8 -9 8 -2 0 -6 -4
-9 -8z"/>
<path d="M1360 280 c-9 -6 -10 -10 -3 -10 6 0 15 5 18 10 8 12 4 12 -15 0z"/>
<path d="M1420 286 c0 -2 8 -10 18 -17 15 -13 16 -12 3 4 -13 16 -21 21 -21
13z"/>
<path d="M1633 275 c0 -8 4 -12 9 -9 5 3 6 10 3 15 -9 13 -12 11 -12 -6z"/>
<path d="M2035 280 c3 -5 8 -10 11 -10 2 0 4 5 4 10 0 6 -5 10 -11 10 -5 0 -7
-4 -4 -10z"/>
<path d="M2070 280 c0 -5 5 -10 11 -10 5 0 7 5 4 10 -3 6 -8 10 -11 10 -2 0
-4 -4 -4 -10z"/>
<path d="M2276 282 c-3 -5 1 -9 9 -9 8 0 12 4 9 9 -3 4 -7 8 -9 8 -2 0 -6 -4
-9 -8z"/>
<path d="M2815 280 c3 -5 8 -10 11 -10 2 0 4 5 4 10 0 6 -5 10 -11 10 -5 0 -7
-4 -4 -10z"/>
<path d="M3536 278 c3 -5 10 -6 15 -3 13 9 11 12 -6 12 -8 0 -12 -4 -9 -9z"/>
<path d="M4256 282 c-3 -5 1 -9 9 -9 8 0 12 4 9 9 -3 4 -7 8 -9 8 -2 0 -6 -4
-9 -8z"/>
<path d="M2373 265 c0 -8 4 -12 9 -9 5 3 6 10 3 15 -9 13 -12 11 -12 -6z"/>
<path d="M856 258 c3 -5 10 -6 15 -3 13 9 11 12 -6 12 -8 0 -12 -4 -9 -9z"/>
<path d="M890 259 c0 -5 5 -7 10 -4 6 3 10 8 10 11 0 2 -4 4 -10 4 -5 0 -10
-5 -10 -11z"/>
<path d="M1535 260 c3 -5 8 -10 11 -10 2 0 4 5 4 10 0 6 -5 10 -11 10 -5 0 -7
-4 -4 -10z"/>
<path d="M1770 259 c0 -5 5 -7 10 -4 6 3 10 8 10 11 0 2 -4 4 -10 4 -5 0 -10
-5 -10 -11z"/>
<path d="M1895 260 c3 -5 8 -10 11 -10 2 0 4 5 4 10 0 6 -5 10 -11 10 -5 0 -7
-4 -4 -10z"/>
<path d="M2210 259 c0 -5 5 -7 10 -4 6 3 10 8 10 11 0 2 -4 4 -10 4 -5 0 -10
-5 -10 -11z"/>
<path d="M2495 259 c-3 -4 2 -6 10 -5 21 3 28 13 10 13 -9 0 -18 -4 -20 -8z"/>
<path d="M2695 260 c3 -5 8 -10 11 -10 2 0 4 5 4 10 0 6 -5 10 -11 10 -5 0 -7
-4 -4 -10z"/>
<path d="M2725 260 c-3 -6 1 -7 9 -4 18 7 21 14 7 14 -6 0 -13 -4 -16 -10z"/>
<path d="M2856 258 c3 -5 10 -6 15 -3 13 9 11 12 -6 12 -8 0 -12 -4 -9 -9z"/>
<path d="M2916 262 c-3 -5 1 -9 9 -9 8 0 12 4 9 9 -3 4 -7 8 -9 8 -2 0 -6 -4
-9 -8z"/>
<path d="M3165 260 c-3 -6 1 -7 9 -4 18 7 21 14 7 14 -6 0 -13 -4 -16 -10z"/>
<path d="M3676 253 c-6 -14 -5 -15 5 -6 7 7 10 15 7 18 -3 3 -9 -2 -12 -12z"/>
<path d="M1396 247 c3 -10 9 -15 12 -12 3 3 0 11 -7 18 -10 9 -11 8 -5 -6z"/>
<path d="M1615 239 c-3 -4 2 -6 10 -5 21 3 28 13 10 13 -9 0 -18 -4 -20 -8z"/>
<path d="M2070 246 c0 -2 7 -7 16 -10 8 -3 12 -2 9 4 -6 10 -25 14 -25 6z"/>
<path d="M2790 240 c0 -5 5 -10 11 -10 5 0 7 5 4 10 -3 6 -8 10 -11 10 -2 0
-4 -4 -4 -10z"/>
<path d="M3386 242 c-3 -5 1 -9 9 -9 8 0 12 4 9 9 -3 4 -7 8 -9 8 -2 0 -6 -4
-9 -8z"/>
<path d="M4159 233 c-13 -16 -12 -17 4 -4 9 7 17 15 17 17 0 8 -8 3 -21 -13z"/>
<path d="M1133 215 c0 -8 4 -12 9 -9 5 3 6 10 3 15 -9 13 -12 11 -12 -6z"/>
<path d="M1435 220 c3 -5 8 -10 11 -10 2 0 4 5 4 10 0 6 -5 10 -11 10 -5 0 -7
-4 -4 -10z"/>
<path d="M1826 158 c3 -5 10 -6 15 -3 13 9 11 12 -6 12 -8 0 -12 -4 -9 -9z"/>
</g>
</svg>
